<svg xmlns="http://www.w3.org/2000/svg" viewBox="0 0 120 120" fill="none" role="img" aria-label="BlurayPOS">
  <defs>
    <linearGradient id="body" x1="20" y1="12" x2="96" y2="108">
      <stop stop-color="#ffffff"/>
      <stop offset="1" stop-color="#d7e5ff"/>
    </linearGradient>
    <linearGradient id="edge" x1="24" y1="16" x2="92" y2="100">
      <stop stop-color="#7ec0ff"/>
      <stop offset="1" stop-color="#2f7dff"/>
    </linearGradient>
  </defs>

  <g>
    <path
      fill="url(#body)"
      stroke="url(#edge)"
      stroke-width="2.2"
      stroke-linejoin="round"
      d="M30 22 V44 H46 C58 44 64 38 64 32 C64 26 58 22 46 22 H34 C31 22 30 24 30 22 Z"
    />
    <path
      fill="url(#body)"
      stroke="url(#edge)"
      stroke-width="2.2"
      stroke-linejoin="round"
      d="M30 54 V96 C30 99 32 100 35 100 H52 C72 100 82 88 82 74 C82 60 72 54 56 54 H44 C38 54 30 58 30 66 Z"
    />
    <rect x="30" y="78" width="16" height="16" rx="4.5" fill="url(#body)" stroke="url(#edge)" stroke-width="2.2"/>
    <path fill="#0b1f6d" d="M24 50 L96 34 L98 40 L26 56 Z"/>
  </g>
</svg>
